<svg width="56" height="36" viewBox="0 0 56 36" fill="none" xmlns="http://www.w3.org/2000/svg">
<path d="M4.75199 10.884C4.99199 10.884 5.23799 10.866 5.48999 10.83C5.74199 10.782 5.94599 10.734 6.10199 10.686V11.892C5.93399 11.976 5.69399 12.042 5.38199 12.09C5.06999 12.15 4.76999 12.18 4.48199 12.18C3.97799 12.18 3.50999 12.096 3.07799 11.928C2.65799 11.748 2.31599 11.442 2.05199 11.01C1.78799 10.578 1.65599 9.972 1.65599 9.192V3.576H0.287994V2.82L1.67399 2.19L2.30399 0.138H3.23999V2.352H6.02999V3.576H3.23999V9.156C3.23999 9.744 3.37799 10.182 3.65399 10.47C3.94199 10.746 4.30799 10.884 4.75199 10.884Z" fill="black"/>
<path d="M8.5019 2.352H10.1939L12.2819 7.842C12.4019 8.166 12.5099 8.478 12.6059 8.778C12.7139 9.078 12.8099 9.372 12.8939 9.66C12.9779 9.936 13.0439 10.206 13.0919 10.47H13.1639C13.2359 10.17 13.3499 9.78 13.5059 9.3C13.6619 8.808 13.8239 8.316 13.9919 7.824L15.9539 2.352H17.6639L13.5059 13.332C13.2779 13.932 13.0079 14.454 12.6959 14.898C12.3959 15.354 12.0239 15.702 11.5799 15.942C11.1479 16.194 10.6199 16.32 9.9959 16.32C9.7079 16.32 9.4559 16.302 9.2399 16.266C9.0239 16.242 8.8379 16.212 8.6819 16.176V14.916C8.8139 14.94 8.9699 14.964 9.1499 14.988C9.3419 15.012 9.5399 15.024 9.7439 15.024C10.1159 15.024 10.4339 14.952 10.6979 14.808C10.9739 14.676 11.2079 14.478 11.3999 14.214C11.5919 13.962 11.7539 13.662 11.8859 13.314L12.3899 12.036L8.5019 2.352Z" fill="black"/>
<path d="M24.8237 2.19C25.9997 2.19 26.8697 2.448 27.4337 2.964C27.9977 3.48 28.2797 4.302 28.2797 5.43V12H27.1277L26.8217 10.632H26.7497C26.4737 10.98 26.1857 11.274 25.8857 11.514C25.5977 11.742 25.2617 11.91 24.8777 12.018C24.5057 12.126 24.0497 12.18 23.5097 12.18C22.9337 12.18 22.4117 12.078 21.9437 11.874C21.4877 11.67 21.1277 11.358 20.8637 10.938C20.5997 10.506 20.4677 9.966 20.4677 9.318C20.4677 8.358 20.8457 7.62 21.6017 7.104C22.3577 6.576 23.5217 6.288 25.0937 6.24L26.7317 6.186V5.61C26.7317 4.806 26.5577 4.248 26.2097 3.936C25.8617 3.624 25.3697 3.468 24.7337 3.468C24.2297 3.468 23.7497 3.546 23.2937 3.702C22.8377 3.846 22.4117 4.014 22.0157 4.206L21.5297 3.018C21.9497 2.79 22.4477 2.598 23.0237 2.442C23.5997 2.274 24.1997 2.19 24.8237 2.19ZM25.2917 7.338C24.0917 7.386 23.2577 7.578 22.7897 7.914C22.3337 8.25 22.1057 8.724 22.1057 9.336C22.1057 9.876 22.2677 10.272 22.5917 10.524C22.9277 10.776 23.3537 10.902 23.8697 10.902C24.6857 10.902 25.3637 10.68 25.9037 10.236C26.4437 9.78 26.7137 9.084 26.7137 8.148V7.284L25.2917 7.338Z" fill="black"/>
<path d="M37.8835 2.172C39.0355 2.172 39.9055 2.454 40.4935 3.018C41.0815 3.57 41.3755 4.47 41.3755 5.718V12H39.8095V5.826C39.8095 5.046 39.6355 4.464 39.2875 4.08C38.9395 3.696 38.3935 3.504 37.6495 3.504C36.5815 3.504 35.8435 3.804 35.4355 4.404C35.0275 5.004 34.8235 5.868 34.8235 6.996V12H33.2395V2.352H34.5175L34.7515 3.666H34.8415C35.0575 3.33 35.3215 3.054 35.6335 2.838C35.9575 2.61 36.3115 2.442 36.6955 2.334C37.0795 2.226 37.4755 2.172 37.8835 2.172Z" fill="black"/>
<path d="M49.7665 2.172C50.4025 2.172 50.9725 2.292 51.4765 2.532C51.9925 2.772 52.4305 3.138 52.7905 3.63H52.8805L53.0965 2.352H54.3565V12.162C54.3565 13.074 54.2005 13.836 53.8885 14.448C53.5765 15.072 53.1025 15.54 52.4665 15.852C51.8305 16.164 51.0205 16.32 50.0365 16.32C49.3405 16.32 48.6985 16.266 48.1105 16.158C47.5345 16.062 47.0185 15.912 46.5625 15.708V14.25C46.8745 14.406 47.2165 14.538 47.5885 14.646C47.9605 14.766 48.3625 14.856 48.7945 14.916C49.2265 14.976 49.6705 15.006 50.1265 15.006C50.9545 15.006 51.6025 14.76 52.0705 14.268C52.5505 13.788 52.7905 13.128 52.7905 12.288V11.91C52.7905 11.766 52.7965 11.562 52.8085 11.298C52.8205 11.022 52.8325 10.83 52.8445 10.722H52.7725C52.4365 11.214 52.0165 11.58 51.5125 11.82C51.0205 12.06 50.4445 12.18 49.7845 12.18C48.5365 12.18 47.5585 11.742 46.8505 10.866C46.1545 9.99 45.8065 8.766 45.8065 7.194C45.8065 6.162 45.9625 5.274 46.2745 4.53C46.5985 3.774 47.0545 3.192 47.6425 2.784C48.2305 2.376 48.9385 2.172 49.7665 2.172ZM49.9825 3.504C49.4425 3.504 48.9805 3.648 48.5965 3.936C48.2245 4.224 47.9365 4.644 47.7325 5.196C47.5405 5.748 47.4445 6.42 47.4445 7.212C47.4445 8.4 47.6605 9.312 48.0925 9.948C48.5365 10.572 49.1785 10.884 50.0185 10.884C50.5105 10.884 50.9305 10.824 51.2785 10.704C51.6265 10.572 51.9145 10.374 52.1425 10.11C52.3705 9.834 52.5385 9.486 52.6465 9.066C52.7545 8.646 52.8085 8.148 52.8085 7.572V7.194C52.8085 6.318 52.7065 5.61 52.5025 5.07C52.3105 4.53 52.0045 4.134 51.5845 3.882C51.1645 3.63 50.6305 3.504 49.9825 3.504Z" fill="black"/>
<path d="M51.8231 25.6822C52.6511 25.6822 53.3591 25.8622 53.9471 26.2222C54.5471 26.5822 55.0031 27.0922 55.3151 27.7522C55.6391 28.4002 55.8011 29.1622 55.8011 30.0382V30.9922H49.1951C49.2191 32.0842 49.4951 32.9182 50.0231 33.4942C50.5631 34.0582 51.3131 34.3402 52.2731 34.3402C52.8851 34.3402 53.4251 34.2862 53.8931 34.1782C54.3731 34.0582 54.8651 33.8902 55.3691 33.6742V35.0602C54.8771 35.2762 54.3911 35.4322 53.9111 35.5282C53.4311 35.6362 52.8611 35.6902 52.2011 35.6902C51.2891 35.6902 50.4791 35.5042 49.7711 35.1322C49.0751 34.7602 48.5291 34.2082 48.1331 33.4762C47.7491 32.7322 47.5571 31.8262 47.5571 30.7582C47.5571 29.7022 47.7311 28.7962 48.0791 28.0402C48.4391 27.2842 48.9371 26.7022 49.5731 26.2942C50.2211 25.8862 50.9711 25.6822 51.8231 25.6822ZM51.8051 26.9782C51.0491 26.9782 50.4491 27.2242 50.0051 27.7162C49.5731 28.1962 49.3151 28.8682 49.2311 29.7322H54.1451C54.1451 29.1802 54.0611 28.7002 53.8931 28.2922C53.7251 27.8842 53.4671 27.5662 53.1191 27.3382C52.7831 27.0982 52.3451 26.9782 51.8051 26.9782Z" fill="black"/>
<line y1="29.7041" x2="42.5455" y2="29.7041" stroke="black" stroke-width="3"/>
</svg>
